<svg xmlns="http://www.w3.org/2000/svg" width="34.207" height="61.013" viewBox="0 0 34.207 61.013">
  <path id="Caminho_15" data-name="Caminho 15" d="M55,.013,46.791,0C37.573,0,31.616,5.894,31.616,15.015v6.923H23.367a1.268,1.268,0,0,0-1.29,1.245V33.214a1.268,1.268,0,0,0,1.29,1.244h8.249V59.769a1.267,1.267,0,0,0,1.29,1.244H43.67a1.268,1.268,0,0,0,1.29-1.244V34.458h9.645a1.267,1.267,0,0,0,1.29-1.244l0-10.031a1.224,1.224,0,0,0-.378-.88,1.315,1.315,0,0,0-.913-.365H44.96V16.07c0-2.821.7-4.253,4.507-4.253l5.527,0a1.268,1.268,0,0,0,1.289-1.244V1.257A1.268,1.268,0,0,0,55,.013Z" transform="translate(-22.077)" fill="#2b9dff"/>
</svg>
