<svg id="github-logo" xmlns="http://www.w3.org/2000/svg" width="59.862" height="58.397" viewBox="0 0 59.862 58.397">
  <g id="Grupo_10" data-name="Grupo 10" transform="translate(0 0)">
    <path id="Caminho_16" data-name="Caminho 16" d="M55.847,20.272A29.8,29.8,0,0,0,44.954,9.379,29.275,29.275,0,0,0,29.931,5.365,29.278,29.278,0,0,0,14.907,9.379,29.8,29.8,0,0,0,4.014,20.272,29.277,29.277,0,0,0,0,35.295a29.088,29.088,0,0,0,5.709,17.6A29.314,29.314,0,0,0,20.46,63.7a1.744,1.744,0,0,0,1.559-.272,1.524,1.524,0,0,0,.507-1.169q0-.117-.02-2.1t-.02-3.468l-.9.155a11.434,11.434,0,0,1-2.163.137,16.479,16.479,0,0,1-2.708-.273,6.052,6.052,0,0,1-2.611-1.168,4.945,4.945,0,0,1-1.714-2.4l-.39-.9a9.738,9.738,0,0,0-1.227-1.987,4.7,4.7,0,0,0-1.7-1.481l-.273-.2a2.861,2.861,0,0,1-.507-.468,2.138,2.138,0,0,1-.351-.546q-.117-.273.195-.449a2.528,2.528,0,0,1,1.13-.174l.779.116A5.689,5.689,0,0,1,11.983,48a6.29,6.29,0,0,1,1.89,2.026,6.87,6.87,0,0,0,2.163,2.436,4.588,4.588,0,0,0,2.552.838,11.083,11.083,0,0,0,2.221-.194,7.751,7.751,0,0,0,1.754-.585,6.314,6.314,0,0,1,1.909-4.014,26.685,26.685,0,0,1-3.995-.7,15.905,15.905,0,0,1-3.663-1.521,10.492,10.492,0,0,1-3.137-2.611,12.548,12.548,0,0,1-2.046-4.092,19.459,19.459,0,0,1-.8-5.846,11.367,11.367,0,0,1,3.079-8.029,10.477,10.477,0,0,1,.273-7.95,5.461,5.461,0,0,1,3.352.526,23.432,23.432,0,0,1,3.254,1.5q1.033.623,1.656,1.052a28.146,28.146,0,0,1,14.966,0l1.481-.935a20.974,20.974,0,0,1,3.585-1.715,5.107,5.107,0,0,1,3.158-.428,10.376,10.376,0,0,1,.311,7.95,11.369,11.369,0,0,1,3.079,8.029,19.677,19.677,0,0,1-.8,5.865,12.061,12.061,0,0,1-2.065,4.092,10.9,10.9,0,0,1-3.157,2.592,15.936,15.936,0,0,1-3.664,1.52,26.658,26.658,0,0,1-3.994.7q2.026,1.753,2.026,5.534v8.222a1.552,1.552,0,0,0,.488,1.169A1.693,1.693,0,0,0,39.4,63.7,29.31,29.31,0,0,0,54.152,52.889a29.094,29.094,0,0,0,5.709-17.6A29.3,29.3,0,0,0,55.847,20.272Z" transform="translate(0 -5.365)" fill="#2b9dff"/>
  </g>
</svg>
