<svg xmlns="http://www.w3.org/2000/svg" width="48.845" height="48.845" viewBox="0 0 48.845 48.845">
  <g id="Grupo_11" data-name="Grupo 11" transform="translate(0)">
    <path id="Caminho_17" data-name="Caminho 17" d="M35.365,0H13.479A13.5,13.5,0,0,0,0,13.479V35.365A13.494,13.494,0,0,0,13.479,48.845H35.365a13.5,13.5,0,0,0,13.48-13.479V13.479A13.5,13.5,0,0,0,35.365,0Zm9.146,35.365a9.156,9.156,0,0,1-9.146,9.146H13.479a9.156,9.156,0,0,1-9.145-9.146V13.479a9.156,9.156,0,0,1,9.145-9.146H35.365a9.156,9.156,0,0,1,9.146,9.146V35.365Z" fill="#2b9dff"/>
    <path id="Caminho_18" data-name="Caminho 18" d="M53.554,40.97A12.586,12.586,0,1,0,66.14,53.556,12.6,12.6,0,0,0,53.554,40.97Zm0,20.837a8.252,8.252,0,1,1,8.252-8.252A8.261,8.261,0,0,1,53.554,61.807Z" transform="translate(-29.132 -29.133)" fill="#2b9dff"/>
    <path id="Caminho_19" data-name="Caminho 19" d="M122.1,28.251a3.176,3.176,0,1,0,2.248.93A3.191,3.191,0,0,0,122.1,28.251Z" transform="translate(-84.563 -20.089)" fill="#2b9dff"/>
  </g>
</svg>
