<svg xmlns="http://www.w3.org/2000/svg" width="42.758" height="40.858" viewBox="0 0 42.758 40.858">
  <path id="LinkedIn" d="M42.758,34.608V50.416H33.594V35.667c0-3.705-1.326-6.234-4.643-6.234a5.015,5.015,0,0,0-4.7,3.353,6.271,6.271,0,0,0-.3,2.234v15.4H14.777s.123-24.98,0-27.569h9.167v3.908c-.019.029-.043.061-.06.089h.06v-.089A9.1,9.1,0,0,1,32.205,22.2C38.237,22.2,42.758,26.14,42.758,34.608ZM5.188,9.558C2.051,9.558,0,11.615,0,14.32a4.748,4.748,0,0,0,5.066,4.766h.061c3.2,0,5.185-2.119,5.185-4.766A4.762,4.762,0,0,0,5.188,9.558ZM.544,50.416H9.709V22.847H.544Z" transform="translate(0 -9.558)" fill="#2b9dff"/>
</svg>
